<svg width="16" height="16" viewBox="0 0 16 16" fill="none" xmlns="http://www.w3.org/2000/svg">
<path fill-rule="evenodd" clip-rule="evenodd" d="M14.7597 14.759C14.3697 15.15 13.7367 15.15 13.3457 14.759L10.4457 11.859C8.10269 13.526 4.8397 13.325 2.7387 11.223C0.395695 8.88 0.395695 5.081 2.7387 2.738C5.0827 0.396001 8.8817 0.396001 11.2247 2.738C13.3257 4.839 13.5267 8.102 11.8597 10.445L14.7597 13.344C15.1507 13.735 15.1507 14.368 14.7597 14.759ZM9.8097 4.153C8.24769 2.59 5.7157 2.59 4.1537 4.153C2.5907 5.714 2.5907 8.246 4.1537 9.809C5.7157 11.371 8.24769 11.371 9.8097 9.809C11.3727 8.246 11.3727 5.714 9.8097 4.153Z" fill="white"/>
</svg>
